PathFileType	3	(X/Y/Z)	F:\ViconData\AntennenMessung\Messung1\Session1\ID23.trc
DataRate	CameraRate	NumFrames	NumMarkers	Units	OrigDataRate	OrigDataStartFrame	OrigNumFrames
120.0	120.0	5	70	mm	120.0	1	1000	
Frame#	Time	Ashort			Along			Atop			A4			Bshort			Blong			Btop			B4			Cshort			Clong			Ctop			C4			Dshort			Dlong			Dtop			D4			Eshort			Elong			Etop			E4			Fshort			Flong			Ftop			F4			Gshort			Glong			Gtop			G4			Hshort			Hlong			Htop			H4			I1			I2			I3			I4			I5			WandAshort			WandAlong			WandAtop			WandA4			WandA15			WandBshort			WandB4			WandB5			WandBtop			WandBlong			WandCshort			WandClong			WandCtop			WandC4			WandC5			Acenter			Aantenna			Bcenter			Bantenna			Ccenter			Cantenna			Dcenter			Dantenna			Ecenter			Eantenna			Fcenter			Fantenna			Gcenter			Gantenna			Hcenter			Hantenna			Icenter			Iantenna			
		X1	Y1	Z1	X2	Y2	Z2	X3	Y3	Z3	X4	Y4	Z4	X5	Y5	Z5	X6	Y6	Z6	X7	Y7	Z7	X8	Y8	Z8	X9	Y9	Z9	X10	Y10	Z10	X11	Y11	Z11	X12	Y12	Z12	X13	Y13	Z13	X14	Y14	Z14	X15	Y15	Z15	X16	Y16	Z16	X17	Y17	Z17	X18	Y18	Z18	X19	Y19	Z19	X20	Y20	Z20	X21	Y21	Z21	X22	Y22	Z22	X23	Y23	Z23	X24	Y24	Z24	X25	Y25	Z25	X26	Y26	Z26	X27	Y27	Z27	X28	Y28	Z28	X29	Y29	Z29	X30	Y30	Z30	X31	Y31	Z31	X32	Y32	Z32	X33	Y33	Z33	X34	Y34	Z34	X35	Y35	Z35	X36	Y36	Z36	X37	Y37	Z37	X38	Y38	Z38	X39	Y39	Z39	X40	Y40	Z40	X41	Y41	Z41	X42	Y42	Z42	X43	Y43	Z43	X44	Y44	Z44	X45	Y45	Z45	X46	Y46	Z46	X47	Y47	Z47	X48	Y48	Z48	X49	Y49	Z49	X50	Y50	Z50	X51	Y51	Z51	X52	Y52	Z52	X53	Y53	Z53	X54	Y54	Z54	X55	Y55	Z55	X56	Y56	Z56	X57	Y57	Z57	X58	Y58	Z58	X59	Y59	Z59	X60	Y60	Z60	X61	Y61	Z61	X62	Y62	Z62	X63	Y63	Z63	X64	Y64	Z64	X65	Y65	Z65	X66	Y66	Z66	X67	Y67	Z67	X68	Y68	Z68	X69	Y69	Z69	X70	Y70	Z70	
1	0	-1038.1907	214.67227	-1643.9816	-1109.4152	204.54903	-1599.3052	-1063.9259	173.29311	-1625.6542	-1054.0927	262.26892	-1634.7773	-1352.462	235.49878	1003.2147	-1281.3024	227.59909	1052.157	-1322.5116	194.05708	1020.8209	-1284.3809	287.92563	1052.5156	814.0589	187.79224	1209.3502	892.17303	178.60001	1178.965	844.61572	145.3291	1198.4225	860.92163	292.52554	1168.3234	1115.8584	209.67468	-1401.6193	1056.4407	194.14494	-1460.2941	1094.9191	162.11186	-1423.8436	1069.7212	239.51286	-1426.347	-1204.6914	1686.028	-1562.9404	-1129.1299	1688.2972	-1605.866	-1173.1362	1724.3312	-1581.8713	-1133.9949	1581.0593	-1603.8009	-1239.66	1699.1969	1119.6074	-1309.4807	1698.9365	1072.0529	-1270.2925	1736.152	1096.9159	-1245.5864	1592.7599	1110.7488	988.83899	1664.0833	1162.0797	957.18726	1700.3907	1183.9227	921.77087	1662.2922	1214.969	939.76251	1659.3845	1159.8243	999.12451	1668.4025	-1579.3651	1059.0541	1670.2609	-1518.7472	1025.0262	1708.0322	-1551.1748	1059.3049	1672.1956	-1585.4507	-231.36746	1638.8519	-185.86354	-228.88118	1638.3835	-270.35947	-229.76491	1675.5469	-223.72841	-196.20264	1638.4598	-221.5296	-278.63354	1639.811	-223.88332																																														-1068.6876	210.33766	-1624.8518	-1073.6589	249.01047	-1624.0143	-1321.0487	232.01147	1024.8201	-1319.5549	270.76828	1028.9041	848.22119	183.77211	1196.0616	851.8562	222.52934	1193.6815	1088.7882	202.59947	-1428.3511	1082.9843	240.92836	-1432.6183	-1171.8573	1687.014	-1581.5929	-1170.5216	1648.0381	-1581.3022	-1271.0486	1699.0798	1098.2286	-1271.8431	1660.1124	1099.6089	952.48132	1705.7887	1187.1703	972.42139	1734.0308	1169.1208	1026.6161	1669.2549	-1551.5576	1028.2137	1630.2896	-1551.9426	-230.25888	1638.6429	-223.53836	-230.78087	1599.647	-223.33755
2	0.0083333333	-1038.1752	214.64977	-1643.9838	-1109.5699	204.09201	-1599.4492	-1063.342	172.88924	-1625.9762	-1054.062	262.23697	-1634.8698	-1352.6422	235.1096	1003.2911	-1281.3004	227.54683	1052.1687	-1322.4669	194.05824	1020.8677	-1284.3967	288.01273	1052.5317	813.98077	187.80399	1209.4473	892.21381	178.64775	1178.8596	844.56769	145.35974	1198.4474	861.03802	292.38379	1168.3965	1115.865	209.69096	-1401.6149	1056.4373	194.15002	-1460.2666	1094.9434	162.16245	-1423.8248	1069.7164	239.51233	-1426.3397	-1204.6914	1686.0303	-1562.9287	-1129.1393	1688.306	-1605.8993	-1173.1423	1724.3556	-1581.8752	-1133.989	1581.0499	-1603.8038	-1239.672	1699.2274	1119.6125	-1309.4519	1698.9091	1072.0468	-1270.4651	1736.3556	1096.9861	-1245.5791	1592.7491	1110.7552	988.86658	1664.142	1162.0577	957.24036	1700.4154	1183.9241	921.61487	1662.3384	1214.9188	939.7478	1659.3966	1159.7576	999.1189	1668.3972	-1579.3632	1058.8483	1669.9753	-1518.7742	1025.0264	1708.0254	-1551.1824	1059.3146	1672.1982	-1585.4525	-231.3429	1638.8435	-185.87305	-228.88145	1638.38	-270.35172	-229.76328	1675.5409	-223.73276	-196.20312	1638.4498	-221.52222	-278.6485	1639.8341	-223.90126																																														-1068.3496	210.18759	-1625.1615	-1073.5377	248.83176	-1624.3175	-1321.1899	231.77541	1024.8396	-1319.8774	270.53897	1028.9218	848.14545	183.8054	1196.0895	851.75238	222.56543	1193.7124	1088.8038	202.61421	-1428.3225	1082.9868	240.94176	-1432.5841	-1171.8616	1687.019	-1581.6008	-1170.5247	1648.0431	-1581.3143	-1271.1106	1699.084	1098.1824	-1271.7854	1660.1099	1099.4333	952.44946	1705.91	1187.2365	972.44873	1734.1707	1169.2817	1026.4829	1669.1201	-1551.6051	1027.9421	1630.1498	-1552.0286	-230.24527	1638.6368	-223.54431	-230.75458	1599.6406	-223.34518
3	0.016666667	-1038.1941	214.64676	-1643.979	-1109.4197	204.48962	-1599.2891	-1063.3896	172.87138	-1625.9753	-1054.068	262.22781	-1634.8754	-1352.4647	235.4379	1003.2461	-1281.3186	227.65372	1052.0732	-1322.4647	194.10172	1020.8124	-1284.4778	287.98514	1052.5244	814.02795	187.78711	1209.4115	892.89911	179.59811	1178.2343	844.54034	145.42436	1198.3654	860.9444	292.52435	1168.4058	1115.9457	210.14952	-1401.8608	1056.4286	194.15421	-1460.3011	1094.9312	162.11903	-1423.8202	1069.7246	239.50626	-1426.3406	-1204.6783	1686.0294	-1562.9462	-1129.1118	1688.281	-1605.8444	-1173.144	1724.3523	-1581.8783	-1133.9829	1581.059	-1603.8082	-1239.6943	1699.2445	1119.6248	-1308.7249	1699.3854	1070.6704	-1270.5204	1736.4266	1097.0121	-1245.6249	1592.8224	1110.7688	988.82629	1664.1013	1162.0825	957.22638	1700.3988	1183.915	921.73334	1662.2593	1214.9453	939.79053	1659.4082	1159.8016	999.12231	1668.4175	-1579.3717	1058.8578	1669.9739	-1518.7758	1025.0311	1708.0239	-1551.1744	1059.3124	1672.1985	-1585.4503	-231.35378	1638.8387	-185.86171	-228.87634	1638.3822	-270.35803	-229.75885	1675.5441	-223.7298	-196.19875	1638.4631	-221.54762	-278.63235	1639.8074	-223.88545																																														-1068.2142	210.36571	-1625.1429	-1073.1903	249.03741	-1624.2844	-1321.0559	232.0014	1024.8018	-1319.6151	270.76065	1028.8816	847.68353	184.29272	1196.1077	850.82184	223.10085	1193.8535	1088.6987	202.82686	-1428.6147	1082.8362	241.11902	-1433.1249	-1171.8601	1687.0072	-1581.5765	-1170.52	1648.0315	-1581.2618	-1270.9255	1699.3081	1097.4764	-1271.3512	1660.3136	1097.9644	952.53418	1705.7883	1187.1567	972.51129	1734.021	1169.1334	1026.488	1669.1304	-1551.6117	1027.9479	1630.1602	-1552.0499	-230.2489	1638.635	-223.54469	-230.76666	1599.639	-223.34911
4	0.025	-1038.1804	214.66035	-1643.9664	-1109.5657	204.11316	-1599.4391	-1063.5194	173.11411	-1626.0665	-1054.0641	262.22787	-1634.8544	-1352.5223	235.49193	1003.2278	-1281.3326	227.56262	1052.1974	-1322.4983	194.07849	1020.872	-1284.4762	287.98547	1052.5564	814.01349	187.80754	1209.4261	892.26727	178.64612	1178.8749	844.54492	145.40129	1198.3799	860.89008	292.52936	1168.391	1115.9421	210.12267	-1401.8464	1056.4353	194.16101	-1460.265	1094.9069	162.11786	-1423.8318	1069.7051	239.50284	-1426.3414	-1204.6906	1686.0104	-1562.9338	-1129.1169	1688.3055	-1605.8634	-1173.1395	1724.3433	-1581.881	-1133.99	1581.0721	-1603.8192	-1239.6776	1699.2157	1119.6106	-1309.4506	1698.911	1072.0491	-1270.4955	1736.3954	1096.9917	-1245.5786	1592.7708	1110.7526	988.82703	1664.0812	1162.0671	957.2066	1700.3866	1183.9414	921.70355	1662.2769	1214.9082	939.7403	1659.3728	1159.8134	999.1181	1668.4159	-1579.3687	1058.8677	1669.9778	-1518.7732	1025.031	1708.0286	-1551.1841	1059.3188	1672.1917	-1585.4485	-231.36292	1638.8438	-185.86847	-228.86877	1638.3734	-270.35239	-229.76114	1675.5481	-223.72205	-196.45766	1638.6788	-221.97134	-278.65955	1639.8524	-223.89604																																														-1068.4039	210.19481	-1625.1141	-1073.4957	248.84825	-1624.1213	-1321.0371	231.985	1024.8856	-1319.5431	270.73975	1028.9891	848.15094	183.81094	1196.0984	851.7901	222.57248	1193.796	1088.6813	202.81042	-1428.6086	1082.8225	241.1049	-1433.104	-1171.8422	1687.0079	-1581.5931	-1170.488	1648.0326	-1581.2928	-1271.1343	1699.0784	1098.1676	-1271.8015	1660.1033	1099.396	952.49811	1705.7927	1187.1985	972.48737	1734.0398	1169.2115	1026.4845	1669.1311	-1551.6146	1027.9409	1630.1606	-1552.0461	-230.25102	1638.6339	-223.53093	-230.76855	1599.6379	-223.32906
5	0.033333333	-1038.1918	214.64134	-1643.9779	-1109.568	204.02084	-1599.4171	-1063.7976	172.95213	-1625.603	-1054.0807	262.2728	-1634.7782	-1352.5675	235.42119	1003.2399	-1281.3237	227.53809	1052.1359	-1322.4558	194.04689	1020.8271	-1284.3792	287.99557	1052.4868	814.05457	187.7319	1209.4209	892.33209	178.75195	1178.7941	844.52228	145.39526	1198.3661	861.00385	292.36172	1168.2988	1115.8635	209.7038	-1401.6239	1056.4124	194.13324	-1460.2792	1094.9347	162.16525	-1423.8595	1069.708	239.53215	-1426.3319	-1204.5802	1685.9258	-1563.1825	-1129.1106	1688.3328	-1605.8923	-1173.1412	1724.3412	-1581.876	-1133.9957	1581.068	-1603.8245	-1239.6287	1699.1554	1119.5938	-1309.4343	1698.8864	1072.035	-1270.4984	1736.3898	1096.9984	-1245.5884	1592.7692	1110.7498	988.88513	1664.1562	1162.0837	957.18842	1700.4205	1183.8859	921.77216	1662.2646	1214.9609	939.77557	1659.4028	1159.7466	999.12262	1668.418	-1579.3813	1059.0607	1670.26	-1518.7366	1025.0309	1708.0321	-1551.1719	1059.323	1672.1841	-1585.4409	-231.36229	1638.8419	-185.86024	-228.87349	1638.373	-270.34204	-229.77014	1675.5387	-223.72401	-196.19669	1638.4812	-221.53239	-278.65723	1639.8424	-223.8927																																														-1068.8457	210.08014	-1624.8402	-1074.0992	248.71655	-1624.0464	-1321.0424	231.93295	1024.876	-1319.5969	270.68546	1029.0176	848.05243	183.83168	1196.1188	851.61334	222.60257	1193.8521	1088.7737	202.60886	-1428.351	1082.9355	240.93378	-1432.6072	-1171.8521	1686.9695	-1581.7039	-1170.5073	1647.993	-1581.5247	-1271.1276	1699.0339	1098.1333	-1271.7842	1660.0575	1099.3175	952.46655	1705.8228	1187.1335	972.37976	1734.0813	1169.0803	1026.6173	1669.2628	-1551.5623	1028.2119	1630.2974	-1551.9548	-230.25244	1638.6327	-223.53337	-230.76207	1599.6366	-223.33197
